<?xml version="1.0"?>
<svg xmlns="http://www.w3.org/2000/svg" height="512px" viewBox="0 -24 480 480" width="512px"><path d="m67.199219 146.664062 250.242187 128.886719c5.664063 2.917969 11.945313 4.441407 18.320313 4.449219h144.238281v-16h-116.449219c5.933594-9.84375 5.933594-22.15625 0-32h116.449219v-16h-8v-80h-96v80h-32.238281c-3.824219-.003906-7.59375-.917969-10.992188-2.664062l-62.722656-32.3125 37.042969-71.0625-85.128906-44.359376-37.257813 71.46875-98.695313-50.855468c-4.039062-2.074219-8.316406-3.644532-12.734374-4.679688-.425782-.136718-.839844-.289062-1.273438-.398437v-81.136719h-72v16h16v16h16v-16h24v64h-56v16h36.449219c-5.933594 9.84375-5.933594 22.15625 0 32h-36.449219v16h56.238281c3.8125.007812 7.570313.921875 10.960938 2.664062zm324.800781 5.335938h24v16h16v-16h24v64h-64zm-163.199219-64.800781 21.277344 11.097656-7.398437 14.183594 14.191406 7.398437 7.394531-14.191406 21.277344 11.097656-29.597657 56.75-56.746093-29.613281zm75.519531 163.609375-220.710937-113.703125c7.785156-6.007813 12.359375-15.273438 12.390625-25.105469 0-.953125-.199219-1.847656-.28125-2.785156l220.671875 113.679687c-7.785156 6.007813-12.359375 15.273438-12.390625 25.105469 0 .953125.199219 1.847656.28125 2.777344zm-234.074218-153.535156c7.550781 3.09375 11.601562 11.335937 9.433594 19.203124-2.164063 7.863282-9.863282 12.875-17.929688 11.667969-8.070312-1.203125-13.96875-8.242187-13.742188-16.398437.226563-8.15625 6.507813-14.855469 14.632813-15.609375 2.566406.136719 5.113281.515625 7.605469 1.136719zm264.21875 166.574218c-.625-.039062-1.234375-.144531-1.847656-.222656-8.277344-1.832031-13.671876-9.8125-12.289063-18.175781 1.386719-8.359375 9.070313-14.175781 17.492187-13.238281 8.421876.933593 14.640626 8.296874 14.15625 16.757812-.484374 8.457031-7.503906 15.0625-15.976562 15.03125-.527344 0-1.023438-.105469-1.535156-.152344zm0 0" fill="#46b549"/><path d="m48 432h432v-16h-8v-96h8v-16h-150.0625l-278.28125-143.113281c-.113281-.054688-.242188-.078125-.351562-.132813-.113282-.058594-.34375-.121094-.519532-.195312-.886718-.351563-1.832031-.542969-2.785156-.558594h-48v16h8v240h-8v16zm8-16v-234.886719l96 49.367188v185.519531zm112 0v-177.289062l16 8.226562v169.0625zm168-96h88v96h-88zm-136-64.800781 88 45.257812v115.542969h-88zm104 160.800781v-107.054688l16 8v99.054688zm152-96v96h-16v-96zm-432-144h16v240h-16zm0 0" fill="#46b549"/></svg>
